<?xml version="1.0" standalone="no"?>
<!DOCTYPE svg PUBLIC "-//W3C//DTD SVG 20010904//EN"
 "http://www.w3.org/TR/2001/REC-SVG-20010904/DTD/svg10.dtd">
<svg version="1.0" xmlns="http://www.w3.org/2000/svg"
 width="512.000000pt" height="512.000000pt" viewBox="0 0 512.000000 512.000000"
 preserveAspectRatio="xMidYMid meet">
<metadata>
Created by potrace 1.14, written by Peter Selinger 2001-2017
</metadata>
<g transform="translate(0.000000,512.000000) scale(0.100000,-0.100000)"
fill="#000000" stroke="none">
<path d="M950 5109 c-164 -32 -209 -47 -335 -109 -215 -106 -387 -277 -492
-490 -48 -98 -56 -117 -69 -160 -4 -14 -9 -29 -11 -35 -39 -126 -37 -63 -40
-1720 -2 -1601 -2 -1610 31 -1758 24 -107 114 -294 188 -391 172 -227 423
-381 703 -430 124 -22 3142 -22 3265 0 253 45 459 156 635 342 127 135 235
343 269 517 4 17 10 41 13 55 12 41 14 3178 2 3235 -5 28 -12 65 -15 83 -2 18
-8 41 -13 50 -4 9 -11 32 -15 51 -10 52 -110 249 -160 315 -58 76 -129 151
-191 202 -61 49 -175 127 -175 119 0 -4 -12 2 -27 13 -16 10 -44 25 -63 32
-19 7 -53 19 -75 27 -44 16 -43 16 -135 40 -60 16 -194 17 -1655 19 -896 1
-1610 -2 -1635 -7z"/>
</g>
</svg>
